<svg width="30" height="30" viewBox="0 0 37 43" fill="none" xmlns="http://www.w3.org/2000/svg">
<path d="M12.3333 4.09524V0H24.6667V4.09524H12.3333ZM16.4444 26.619H20.5556V14.3333H16.4444V26.619ZM18.5 43C15.9648 43 13.5752 42.5137 11.3313 41.5411C9.08727 40.5685 7.12593 39.246 5.44722 37.5738C3.76852 35.9016 2.44097 33.9478 1.46458 31.7125C0.488194 29.4772 0 27.0968 0 24.5714C0 22.046 0.488194 19.6657 1.46458 17.4304C2.44097 15.195 3.76852 13.2413 5.44722 11.569C7.12593 9.89683 9.08727 8.5744 11.3313 7.60179C13.5752 6.62917 15.9648 6.14286 18.5 6.14286C20.6241 6.14286 22.6625 6.48413 24.6153 7.16667C26.5681 7.84921 28.4009 8.83889 30.1139 10.1357L32.9917 7.26905L35.8694 10.1357L32.9917 13.0024C34.2935 14.7087 35.287 16.5345 35.9722 18.4798C36.6574 20.425 37 22.4556 37 24.5714C37 27.0968 36.5118 29.4772 35.5354 31.7125C34.559 33.9478 33.2315 35.9016 31.5528 37.5738C29.8741 39.246 27.9127 40.5685 25.6688 41.5411C23.4248 42.5137 21.0352 43 18.5 43ZM18.5 38.9048C22.4741 38.9048 25.8657 37.5056 28.675 34.7071C31.4843 31.9087 32.8889 28.5302 32.8889 24.5714C32.8889 20.6127 31.4843 17.2341 28.675 14.4357C25.8657 11.6373 22.4741 10.2381 18.5 10.2381C14.5259 10.2381 11.1343 11.6373 8.325 14.4357C5.51574 17.2341 4.11111 20.6127 4.11111 24.5714C4.11111 28.5302 5.51574 31.9087 8.325 34.7071C11.1343 37.5056 14.5259 38.9048 18.5 38.9048Z" fill="#A6A6A6"/>
</svg>
