<svg width="30" height="30" viewBox="0 0 30 43" fill="none" xmlns="http://www.w3.org/2000/svg">
<path d="M15 43C11.2143 43 8.125 42.3998 5.73214 41.1994C3.33929 39.999 2.14286 38.4492 2.14286 36.55C2.14286 35.69 2.40179 34.8927 2.91964 34.1581C3.4375 33.4235 4.16071 32.7875 5.08929 32.25L8.46429 35.4213C8.14286 35.5646 7.79464 35.7258 7.41964 35.905C7.04464 36.0842 6.75 36.2992 6.53571 36.55C7 37.1233 8.07143 37.625 9.75 38.055C11.4286 38.485 13.1786 38.7 15 38.7C16.8214 38.7 18.5804 38.485 20.2768 38.055C21.9732 37.625 23.0536 37.1233 23.5179 36.55C23.2679 36.2633 22.9464 36.0304 22.5536 35.8512C22.1607 35.6721 21.7857 35.5108 21.4286 35.3675L24.75 32.1425C25.75 32.7158 26.5179 33.3698 27.0536 34.1044C27.5893 34.839 27.8571 35.6542 27.8571 36.55C27.8571 38.4492 26.6607 39.999 24.2679 41.1994C21.875 42.3998 18.7857 43 15 43ZM15.0536 31.175C18.5893 28.5592 21.25 25.9344 23.0357 23.3006C24.8214 20.6669 25.7143 18.0242 25.7143 15.3725C25.7143 11.7175 24.5536 8.95833 22.2321 7.095C19.9107 5.23167 17.5 4.3 15 4.3C12.5 4.3 10.0893 5.23167 7.76786 7.095C5.44643 8.95833 4.28571 11.7175 4.28571 15.3725C4.28571 17.7733 5.16071 20.2727 6.91071 22.8706C8.66071 25.4685 11.375 28.2367 15.0536 31.175ZM15 36.55C9.96429 32.8233 6.20536 29.2042 3.72321 25.6925C1.24107 22.1808 0 18.7408 0 15.3725C0 12.8283 0.455357 10.5977 1.36607 8.68062C2.27679 6.76354 3.44643 5.16 4.875 3.87C6.30357 2.58 7.91071 1.6125 9.69643 0.9675C11.4821 0.3225 13.25 0 15 0C16.75 0 18.5179 0.3225 20.3036 0.9675C22.0893 1.6125 23.6964 2.58 25.125 3.87C26.5536 5.16 27.7232 6.76354 28.6339 8.68062C29.5446 10.5977 30 12.8283 30 15.3725C30 18.7408 28.7589 22.1808 26.2768 25.6925C23.7946 29.2042 20.0357 32.8233 15 36.55ZM15 19.35C16.1786 19.35 17.1875 18.929 18.0268 18.0869C18.8661 17.2448 19.2857 16.2325 19.2857 15.05C19.2857 13.8675 18.8661 12.8552 18.0268 12.0131C17.1875 11.171 16.1786 10.75 15 10.75C13.8214 10.75 12.8125 11.171 11.9732 12.0131C11.1339 12.8552 10.7143 13.8675 10.7143 15.05C10.7143 16.2325 11.1339 17.2448 11.9732 18.0869C12.8125 18.929 13.8214 19.35 15 19.35Z" fill="#A6A6A6"/>
</svg>
