<svg width="30" height="30" viewBox="0 0 37 37" fill="none" xmlns="http://www.w3.org/2000/svg">
<path d="M4.1625 30.2136C2.99083 28.8501 2.05042 27.3317 1.34125 25.6583C0.632083 23.9849 0.185 22.2186 0 20.3593H3.7925C3.9775 21.7228 4.31667 23.0165 4.81 24.2406C5.30333 25.4646 5.95083 26.5879 6.7525 27.6106L4.1625 30.2136ZM0 16.6407C0.246667 14.7814 0.709167 13.0151 1.3875 11.3417C2.06583 9.66834 2.99083 8.14992 4.1625 6.78643L6.7525 9.38945C5.95083 10.4121 5.30333 11.5354 4.81 12.7594C4.31667 13.9835 3.9775 15.2772 3.7925 16.6407H0ZM16.5575 37C14.7075 36.8141 12.9577 36.3647 11.3081 35.652C9.65854 34.9393 8.14 34.0251 6.7525 32.9095L9.3425 30.2136C10.4217 31.0193 11.5548 31.6855 12.7419 32.2123C13.929 32.7391 15.2008 33.0955 16.5575 33.2814V37ZM9.435 6.78643L6.7525 4.09045C8.14 2.97487 9.65854 2.06072 11.3081 1.34799C12.9577 0.63526 14.7383 0.18593 16.65 0V3.71859C15.2625 3.90452 13.9675 4.26089 12.765 4.78769C11.5625 5.31449 10.4525 5.98074 9.435 6.78643ZM13.875 26.8668V10.1332L26.825 18.5L13.875 26.8668ZM20.35 37V33.2814C24.0808 32.7546 27.1719 31.0967 29.6231 28.3078C32.0744 25.5188 33.3 22.2496 33.3 18.5C33.3 14.7504 32.0744 11.4812 29.6231 8.69221C27.1719 5.90327 24.0808 4.24539 20.35 3.71859V0C25.0983 0.526801 29.0604 2.54104 32.2362 6.04271C35.4121 9.54439 37 13.6968 37 18.5C37 23.3032 35.4121 27.4556 32.2362 30.9573C29.0604 34.459 25.0983 36.4732 20.35 37Z" fill="#A6A6A6"/>
</svg>
