<svg width="30" height="30" viewBox="0 0 35 35" fill="none" xmlns="http://www.w3.org/2000/svg">
<path d="M16.45 12.25H30.45C29.6625 10.2375 28.4594 8.50937 26.8406 7.06562C25.2219 5.62187 23.3625 4.60833 21.2625 4.025L16.45 12.25ZM12.425 15.75L19.425 3.675C19.1042 3.61667 18.7833 3.57292 18.4625 3.54375C18.1417 3.51458 17.8208 3.5 17.5 3.5C15.575 3.5 13.7812 3.86458 12.1188 4.59375C10.4563 5.32292 8.98333 6.3 7.7 7.525L12.425 15.75ZM3.9375 21H13.475L6.475 8.925C5.54167 10.1208 4.8125 11.4406 4.2875 12.8844C3.7625 14.3281 3.5 15.8667 3.5 17.5C3.5 18.1125 3.53646 18.7031 3.60938 19.2719C3.68229 19.8406 3.79167 20.4167 3.9375 21ZM13.7375 30.975L18.4625 22.75H4.55C5.3375 24.7625 6.54062 26.4906 8.15938 27.9344C9.77812 29.3781 11.6375 30.3917 13.7375 30.975ZM17.5 31.5C19.425 31.5 21.2188 31.1354 22.8813 30.4062C24.5437 29.6771 26.0167 28.7 27.3 27.475L22.575 19.25L15.575 31.325C15.8958 31.3833 16.2094 31.4271 16.5156 31.4563C16.8219 31.4854 17.15 31.5 17.5 31.5ZM28.525 26.075C29.4583 24.8792 30.1875 23.5594 30.7125 22.1156C31.2375 20.6719 31.5 19.1333 31.5 17.5C31.5 16.8875 31.4635 16.2969 31.3906 15.7281C31.3177 15.1594 31.2083 14.5833 31.0625 14H21.525L28.525 26.075ZM17.5 35C15.1083 35 12.8479 34.5406 10.7188 33.6219C8.58958 32.7031 6.73021 31.449 5.14062 29.8594C3.55104 28.2698 2.29688 26.4104 1.37813 24.2812C0.459375 22.1521 0 19.8917 0 17.5C0 15.0792 0.459375 12.8115 1.37813 10.6969C2.29688 8.58229 3.55104 6.73021 5.14062 5.14062C6.73021 3.55104 8.58958 2.29688 10.7188 1.37813C12.8479 0.459375 15.1083 0 17.5 0C19.9208 0 22.1885 0.459375 24.3031 1.37813C26.4177 2.29688 28.2698 3.55104 29.8594 5.14062C31.449 6.73021 32.7031 8.58229 33.6219 10.6969C34.5406 12.8115 35 15.0792 35 17.5C35 19.8917 34.5406 22.1521 33.6219 24.2812C32.7031 26.4104 31.449 28.2698 29.8594 29.8594C28.2698 31.449 26.4177 32.7031 24.3031 33.6219C22.1885 34.5406 19.9208 35 17.5 35Z" fill="#A6A6A6"/>
</svg>
