<svg width="32" height="32" viewBox="0 0 32 32" fill="none" xmlns="http://www.w3.org/2000/svg">
<path d="M17.7778 32V28.4444H21.3333V32H17.7778ZM14.2222 28.4444V19.5556H17.7778V28.4444H14.2222ZM28.4444 23.1111V16H32V23.1111H28.4444ZM24.8889 16V12.4444H28.4444V16H24.8889ZM3.55556 19.5556V16H7.11111V19.5556H3.55556ZM0 16V12.4444H3.55556V16H0ZM16 3.55556V0H19.5556V3.55556H16ZM2.66667 8H8V2.66667H2.66667V8ZM0 10.6667V0H10.6667V10.6667H0ZM2.66667 29.3333H8V24H2.66667V29.3333ZM0 32V21.3333H10.6667V32H0ZM24 8H29.3333V2.66667H24V8ZM21.3333 10.6667V0H32V10.6667H21.3333ZM24.8889 32V26.6667H21.3333V23.1111H28.4444V28.4444H32V32H24.8889ZM17.7778 19.5556V16H24.8889V19.5556H17.7778ZM10.6667 19.5556V16H7.11111V12.4444H17.7778V16H14.2222V19.5556H10.6667ZM12.4444 10.6667V3.55556H16V7.11111H19.5556V10.6667H12.4444ZM4 6.66667V4H6.66667V6.66667H4ZM4 28V25.3333H6.66667V28H4ZM25.3333 6.66667V4H28V6.66667H25.3333Z" fill="#E5E2E1"/>
</svg>
