<svg width="80" height="64" viewBox="0 0 80 64" fill="none" xmlns="http://www.w3.org/2000/svg">
<path d="M33.8 46C35.4 47.6 37.4667 48.3833 40 48.35C42.5333 48.3167 44.4 47.4 45.6 45.6L68 12L34.4 34.4C32.6 35.6 31.65 37.4333 31.55 39.9C31.45 42.3667 32.2 44.4 33.8 46ZM40 0C43.9333 0 47.7167 0.55 51.35 1.65C54.9833 2.75 58.4 4.4 61.6 6.6L54 11.4C51.8 10.2667 49.5167 9.41667 47.15 8.85C44.7833 8.28333 42.4 8 40 8C31.1333 8 23.5833 11.1167 17.35 17.35C11.1167 23.5833 8 31.1333 8 40C8 42.8 8.38333 45.5667 9.15 48.3C9.91667 51.0333 11 53.6 12.4 56H67.6C69.1333 53.4667 70.25 50.8333 70.95 48.1C71.65 45.3667 72 42.5333 72 39.6C72 37.2 71.7167 34.8667 71.15 32.6C70.5833 30.3333 69.7333 28.1333 68.6 26L73.4 18.4C75.4 21.5333 76.9833 24.8667 78.15 28.4C79.3167 31.9333 79.9333 35.6 80 39.4C80.0667 43.2 79.6333 46.8333 78.7 50.3C77.7667 53.7667 76.4 57.0667 74.6 60.2C73.8667 61.4 72.8667 62.3333 71.6 63C70.3333 63.6667 69 64 67.6 64H12.4C11 64 9.66667 63.6667 8.4 63C7.13333 62.3333 6.13333 61.4 5.4 60.2C3.66667 57.2 2.33333 54.0167 1.4 50.65C0.466667 47.2833 0 43.7333 0 40C0 34.4667 1.05 29.2833 3.15 24.45C5.25 19.6167 8.11667 15.3833 11.75 11.75C15.3833 8.11667 19.6333 5.25 24.5 3.15C29.3667 1.05 34.5333 0 40 0Z" fill="white"/>
</svg>
