<svg width="34" height="33" viewBox="0 0 34 33" fill="none" xmlns="http://www.w3.org/2000/svg">
<g clip-path="url(#clip0_28_54)">
<path d="M16.9161 33C26.2586 33 33.8321 25.6127 33.8321 16.5C33.8321 7.3873 26.2586 0 16.9161 0C7.57358 0 0 7.3873 0 16.5C0 25.6127 7.57358 33 16.9161 33Z" fill="url(#paint0_linear_28_54)"/>
<path d="M20.3349 8.25H13.4972C12.1613 8.25172 10.8806 8.77013 9.93594 9.69155C8.99129 10.613 8.45981 11.8622 8.45804 13.1653V19.8347C8.45981 21.1378 8.99129 22.387 9.93594 23.3084C10.8806 24.2299 12.1613 24.7483 13.4972 24.75H20.3349C21.671 24.7488 22.9521 24.2306 23.8969 23.3091C24.8416 22.3875 25.3729 21.138 25.3741 19.8347V13.1653C25.3723 11.8622 24.8409 10.613 23.8962 9.69155C22.9516 8.77013 21.6708 8.25172 20.3349 8.25ZM23.6736 19.8347C23.6736 20.6984 23.3218 21.5268 22.6957 22.1375C22.0696 22.7482 21.2204 23.0913 20.3349 23.0913H13.4972C12.6118 23.0913 11.7626 22.7482 11.1364 22.1375C10.5103 21.5268 10.1585 20.6984 10.1585 19.8347V13.1653C10.1585 12.3016 10.5103 11.4732 11.1364 10.8625C11.7626 10.2518 12.6118 9.90868 13.4972 9.90868H20.3349C21.2204 9.90868 22.0696 10.2518 22.6957 10.8625C23.3218 11.4732 23.6736 12.3016 23.6736 13.1653V19.8347Z" fill="white"/>
<path d="M16.9161 12.2339C16.0504 12.2335 15.2041 12.4835 14.4841 12.9523C13.7641 13.4212 13.2029 14.0878 12.8715 14.8678C12.54 15.6478 12.4531 16.5062 12.6219 17.3344C12.7907 18.1625 13.2075 18.9233 13.8196 19.5203C14.4317 20.1174 15.2116 20.5239 16.0607 20.6886C16.9097 20.8532 17.7898 20.7685 18.5895 20.4452C19.3892 20.1218 20.0726 19.5744 20.5532 18.8722C21.0339 18.1699 21.2902 17.3444 21.2898 16.5C21.2886 15.3689 20.8274 14.2845 20.0074 13.4847C19.1875 12.6849 18.0757 12.235 16.9161 12.2339ZM16.9161 19.1053C16.3878 19.1053 15.8714 18.9525 15.4322 18.6662C14.9929 18.3799 14.6506 17.9731 14.4484 17.497C14.2463 17.021 14.1934 16.4971 14.2964 15.9917C14.3995 15.4864 14.6539 15.0222 15.0274 14.6578C15.401 14.2935 15.8769 14.0453 16.395 13.9448C16.9131 13.8443 17.4502 13.8959 17.9382 14.0931C18.4263 14.2902 18.8434 14.6242 19.1369 15.0526C19.4304 15.481 19.587 15.9847 19.587 16.5C19.587 17.191 19.3056 17.8536 18.8047 18.3422C18.3038 18.8308 17.6245 19.1053 16.9161 19.1053Z" fill="white"/>
<path d="M21.3165 13.289C21.9139 13.289 22.3982 12.8166 22.3982 12.2339C22.3982 11.6512 21.9139 11.1788 21.3165 11.1788C20.7191 11.1788 20.2347 11.6512 20.2347 12.2339C20.2347 12.8166 20.7191 13.289 21.3165 13.289Z" fill="white"/>
</g>
<defs>
<linearGradient id="paint0_linear_28_54" x1="16.9161" y1="32.848" x2="16.9161" y2="2.23618" gradientUnits="userSpaceOnUse">
<stop stop-color="#E09B3D"/>
<stop offset="0.24" stop-color="#C74C4D"/>
<stop offset="0.65" stop-color="#C21975"/>
<stop offset="1" stop-color="#7024C4"/>
</linearGradient>
<clipPath id="clip0_28_54">
<rect width="33.8321" height="33" fill="white"/>
</clipPath>
</defs>
</svg>
