<svg width="204" height="71" viewBox="0 0 204 71" fill="none" xmlns="http://www.w3.org/2000/svg">
<path d="M1.5625 58L23.4375 20.5H29.6875L51.5625 58H46.0938L41.4062 49.4062H11.7188L7.03125 58H1.5625ZM14.0625 45.5H39.0625L26.5625 23.625L14.0625 45.5ZM57.8125 58V20.5H94.6289V24.4062H62.5V36.9062H93.2861V40.8125H62.5V54.0938H95.3125V58H57.8125ZM101.66 20.5H126.758C130.42 20.5 133.366 20.6628 135.596 20.9883C137.842 21.3138 139.543 21.8753 140.698 22.6729C141.854 23.4704 142.635 24.5609 143.042 25.9443C143.449 27.3278 143.652 29.0775 143.652 31.1934V32.1699C143.652 34.123 143.416 35.8076 142.944 37.2236C142.489 38.6234 141.602 39.7627 140.283 40.6416C138.965 41.5042 137.012 42.1146 134.424 42.4727L142.578 58H137.891L129.907 42.8145C129.582 42.8307 129.24 42.8389 128.882 42.8389C128.54 42.8389 128.182 42.8389 127.808 42.8389H106.348V58H101.66V20.5ZM106.348 38.7861H127.075C129.858 38.7861 132.048 38.6966 133.643 38.5176C135.254 38.3223 136.434 37.9886 137.183 37.5166C137.948 37.0446 138.436 36.3773 138.647 35.5146C138.859 34.652 138.965 33.5371 138.965 32.1699V31.1934C138.965 29.6471 138.818 28.4264 138.525 27.5312C138.232 26.6361 137.646 25.9769 136.768 25.5537C135.889 25.1305 134.578 24.862 132.837 24.748C131.095 24.6178 128.768 24.5527 125.854 24.5527H106.348V38.7861ZM169.116 58.7812C165.454 58.7812 162.443 58.529 160.083 58.0244C157.723 57.5361 155.876 56.6247 154.541 55.29C153.223 53.9554 152.295 52.0348 151.758 49.5283C151.237 47.0218 150.977 43.7585 150.977 39.7383V38.7617C150.977 35.4414 151.139 32.6582 151.465 30.4121C151.79 28.1497 152.352 26.3105 153.149 24.8945C153.947 23.4785 155.029 22.3962 156.396 21.6475C157.78 20.8988 159.513 20.3942 161.597 20.1338C163.68 19.8571 166.187 19.7188 169.116 19.7188H178.955C181.885 19.7188 184.391 19.8571 186.475 20.1338C188.558 20.3942 190.283 20.8988 191.65 21.6475C193.034 22.3962 194.124 23.4785 194.922 24.8945C195.719 26.3105 196.281 28.1497 196.606 30.4121C196.932 32.6582 197.095 35.4414 197.095 38.7617V39.7383C197.095 43.7585 196.826 47.0218 196.289 49.5283C195.768 52.0348 194.84 53.9554 193.506 55.29C192.188 56.6247 190.348 57.5361 187.988 58.0244C185.628 58.529 182.617 58.7812 178.955 58.7812H169.116ZM169.116 54.7285H178.955C181.283 54.7285 183.244 54.6471 184.839 54.4844C186.434 54.3216 187.728 53.9717 188.721 53.4346C189.73 52.8975 190.495 52.0837 191.016 50.9932C191.553 49.9027 191.919 48.446 192.114 46.623C192.31 44.8001 192.407 42.5052 192.407 39.7383V38.7617C192.407 35.8971 192.31 33.5371 192.114 31.6816C191.919 29.8262 191.553 28.3613 191.016 27.2871C190.495 26.2129 189.73 25.4316 188.721 24.9434C187.728 24.4388 186.434 24.1214 184.839 23.9912C183.244 23.8447 181.283 23.7715 178.955 23.7715H169.116C166.789 23.7715 164.827 23.8447 163.232 23.9912C161.637 24.1214 160.335 24.4388 159.326 24.9434C158.333 25.4316 157.568 26.2129 157.031 27.2871C156.51 28.3613 156.152 29.8262 155.957 31.6816C155.762 33.5371 155.664 35.8971 155.664 38.7617V39.7383C155.664 42.5052 155.762 44.8001 155.957 46.623C156.152 48.446 156.51 49.9027 157.031 50.9932C157.568 52.0837 158.333 52.8975 159.326 53.4346C160.335 53.9717 161.637 54.3216 163.232 54.4844C164.827 54.6471 166.789 54.7285 169.116 54.7285Z" fill="#131313"/>
<circle cx="200.5" cy="19.5" r="3.5" fill="#FF0000"/>
</svg>
