<svg width="34" height="33" viewBox="0 0 34 33" fill="none" xmlns="http://www.w3.org/2000/svg">
<g clip-path="url(#clip0_28_67)">
<path d="M16.9161 33C26.2586 33 33.8321 25.6127 33.8321 16.5C33.8321 7.3873 26.2586 0 16.9161 0C7.57358 0 0 7.3873 0 16.5C0 25.6127 7.57358 33 16.9161 33Z" fill="#039BE5"/>
<path d="M7.74051 16.1425L24.0504 10.0086C24.8074 9.74185 25.4686 10.1887 25.2233 11.3052L25.2247 11.3039L22.4476 24.0652C22.2418 24.97 21.6906 25.19 20.9195 24.7637L16.6905 21.7236L14.6507 23.6404C14.4252 23.8604 14.2349 24.046 13.7979 24.046L14.0981 19.8481L21.9359 12.9415C22.2771 12.6486 21.8598 12.4836 21.4101 12.7751L11.7242 18.7234L7.54879 17.4529C6.64237 17.1724 6.62264 16.5687 7.74051 16.1425Z" fill="white"/>
</g>
<defs>
<clipPath id="clip0_28_67">
<rect width="33.8321" height="33" fill="white"/>
</clipPath>
</defs>
</svg>
