<svg width="33" height="33" viewBox="0 0 33 33" fill="none" xmlns="http://www.w3.org/2000/svg">
<g clip-path="url(#clip0_28_62)">
<path d="M16.4185 33C25.4862 33 32.8371 25.6127 32.8371 16.5C32.8371 7.3873 25.4862 0 16.4185 0C7.35083 0 0 7.3873 0 16.5C0 25.6127 7.35083 33 16.4185 33Z" fill="#003FFF"/>
<path d="M23.9905 21.2155C23.606 21.2698 21.7373 21.2155 21.6401 21.2155C21.1569 21.2204 20.6913 21.034 20.3439 20.6966C19.9485 20.3145 19.5921 19.8933 19.214 19.496C19.0992 19.3749 18.9758 19.2625 18.8446 19.1595C18.5357 18.9229 18.2311 18.9772 18.0863 19.3419C17.973 19.7372 17.8949 20.1419 17.853 20.5512C17.8463 20.7236 17.7717 20.8862 17.6458 21.0035C17.5198 21.1207 17.3527 21.1829 17.1811 21.1764C16.9262 21.1895 16.6713 21.196 16.4185 21.1895C15.4991 21.1847 14.5938 20.9615 13.7765 20.5381C12.8941 20.0426 12.1251 19.3666 11.5189 18.5538C10.5491 17.2668 9.71096 15.8849 9.01724 14.4288C8.98051 14.355 8.25248 12.7983 8.2352 12.7267C8.19006 12.6247 8.18575 12.5091 8.22316 12.404C8.26058 12.2989 8.33684 12.2123 8.43611 12.1622C8.56573 12.1123 10.9659 12.1622 11.0047 12.1622C11.1835 12.1605 11.3581 12.2163 11.503 12.3213C11.648 12.4264 11.7557 12.5753 11.8106 12.7462C12.2544 13.8835 12.8606 14.9498 13.6101 15.9116C13.7146 16.0413 13.8377 16.1547 13.9752 16.2481C14.0107 16.2825 14.0546 16.3068 14.1025 16.3184C14.1504 16.33 14.2005 16.3285 14.2476 16.3141C14.2948 16.2997 14.3372 16.2729 14.3706 16.2365C14.404 16.2001 14.4271 16.1554 14.4375 16.107C14.5325 15.7931 14.5883 15.4686 14.6039 15.1409C14.6168 14.4896 14.6039 14.0554 14.5671 13.4041C14.5802 13.1821 14.5056 12.9639 14.3596 12.7969C14.2136 12.6298 14.008 12.5274 13.7873 12.5118C13.5971 12.4792 13.5712 12.3229 13.703 12.1666C13.9558 11.8431 14.3057 11.791 14.686 11.7714C15.2606 11.7389 15.8374 11.7714 16.4142 11.7714H16.5395C16.7928 11.7708 17.0454 11.7963 17.2935 11.8474C17.4385 11.8773 17.5701 11.9534 17.6686 12.0645C17.7671 12.1756 17.8272 12.3158 17.84 12.464C17.8692 12.628 17.8822 12.7946 17.8789 12.9612C17.8638 13.6711 17.8292 14.381 17.8206 15.0931C17.8154 15.3744 17.8408 15.6554 17.8962 15.9312C17.9805 16.3089 18.2375 16.4045 18.5011 16.1287C18.8295 15.7745 19.1307 15.3956 19.402 14.9954C19.8897 14.2668 20.2914 13.4836 20.5988 12.6616C20.7651 12.2404 20.8926 12.147 21.3441 12.147H23.8911C24.0431 12.1445 24.1946 12.165 24.3405 12.2078C24.392 12.2216 24.4401 12.2459 24.4819 12.2792C24.5236 12.3124 24.5581 12.354 24.5833 12.4012C24.6084 12.4484 24.6236 12.5003 24.6279 12.5537C24.6322 12.6071 24.6256 12.6608 24.6084 12.7115C24.4595 13.2561 24.2039 13.7654 23.8566 14.2095C23.3381 14.9455 22.7937 15.6641 22.2623 16.3806C22.195 16.4743 22.1337 16.5722 22.0786 16.6737C21.8799 17.0341 21.895 17.2381 22.1823 17.5421C22.6446 18.0197 23.1393 18.4691 23.5844 18.9598C23.9126 19.3173 24.209 19.7031 24.4701 20.1126C24.7985 20.6424 24.5976 21.1287 23.9905 21.2155Z" fill="white"/>
</g>
<defs>
<clipPath id="clip0_28_62">
<rect width="32.8371" height="33" fill="white"/>
</clipPath>
</defs>
</svg>
